<?xml version="1.0" encoding="utf-8"?>
<!-- Generator: Adobe Illustrator 18.1.1, SVG Export Plug-In . SVG Version: 6.00 Build 0)  -->
<!DOCTYPE svg PUBLIC "-//W3C//DTD SVG 1.1//EN" "http://www.w3.org/Graphics/SVG/1.1/DTD/svg11.dtd">
<svg version="1.1" id="Layer_1" xmlns="http://www.w3.org/2000/svg" xmlns:xlink="http://www.w3.org/1999/xlink" x="0px" y="0px"
	 viewBox="0 0 268.7 284.6" enable-background="new 0 0 268.7 284.6" xml:space="preserve">
<g>
	<path fill="#B2B2B2" d="M133.9,0L0,47.1l21.2,175.5l112.9,62.1l113.5-62.9l21.2-175.5L133.9,0z M133.9,0"/>
	<path fill="#B52E31" d="M255.3,56.4L133.6,14.9v254.9l102-56.5L255.3,56.4z M255.3,56.4"/>
	<path fill="#E23237" d="M15,57.2l18.1,156.9l100.4,55.7V14.9L15,57.2z M15,57.2"/>
	<path fill="#F0F0F0" d="M161.8,141.7l-28-58.5l-24.6,58.5H161.8z M172.5,166.3H98.3l-16.6,41.5l-30.9,0.6l82.8-184.2l85.7,184.2
		h-28.6L172.5,166.3z M172.5,166.3"/>
	<path fill="#B2B2B2" d="M133.6,24.2l0.2,59.1l28,58.5h-28.1l-0.1,24.5l38.9,0l18.2,42.1l29.5,0.5L133.6,24.2z M133.6,24.2"/>
</g>
</svg>
