<?xml version="1.0" encoding="utf-8"?>
<!-- Generator: Adobe Illustrator 18.1.1, SVG Export Plug-In . SVG Version: 6.00 Build 0)  -->
<!DOCTYPE svg PUBLIC "-//W3C//DTD SVG 1.1//EN" "http://www.w3.org/Graphics/SVG/1.1/DTD/svg11.dtd">
<svg version="1.1" id="Layer_1" xmlns:sketch="http://www.bohemiancoding.com/sketch/ns"
	 xmlns="http://www.w3.org/2000/svg" xmlns:xlink="http://www.w3.org/1999/xlink" x="0px" y="0px" viewBox="-170 -98 298 338"
	 enable-background="new -170 -98 298 338" xml:space="preserve">
<title>Slice 1</title>
<description>Created with Sketch (http://www.bohemiancoding.com/sketch)</description>
<g id="Page_1">
	<g id="Layer_1_1_">
		<path id="Shape_1_" fill="#1572B6" d="M-142.9,206.3l-27.1-303.6h297.5l-27.1,303.6L-21.4,240L-142.9,206.3z"/>
		<path id="Shape_2_" fill="#33A9DC" d="M-21.2,214.2l98.4-27.3l23.2-259.4H-21.2V214.2z"/>
		<g id="Group" transform="translate(55.000000, 142.000000)">
			<path id="Shape_3_" fill="#FFFFFF" d="M-76.2-104.5h49.3l3.4-38.1h-52.7v-37.2h0.1h93.2l-0.9,10L7.1-67.3h-83.3V-104.5z"/>
			<path id="Shape_4_" fill="#EBEBEB" d="M-76-7.8l-0.2,0l-41.5-11.2l-2.7-29.7h-20.2h-17.2l5.2,58.5L-76.2,31l0.2,0V-7.8z"/>
			<path id="Shape_5_" fill="#FFFFFF" d="M-30.1-68.8L-34.6-19L-76.1-7.8V31L0.2,9.8l0.6-6.3l6.5-72.4H-30.1z"/>
			<path id="Shape_6_" fill="#EBEBEB" d="M-76.1-179.9v23.1v14v0.1h-89.8h-0.1l-0.7-8.4l-1.7-18.9l-0.9-10H-76.1z"/>
			<path id="Shape_7_" fill="#EBEBEB" d="M-76.2-104.5v23.1v14v0.1H-117h-0.1l-0.7-8.4l-1.7-18.9l-0.9-10H-76.2z"/>
		</g>
	</g>
</g>
</svg>
