<?xml version="1.0" encoding="utf-8"?>
<!-- Generator: Adobe Illustrator 18.1.1, SVG Export Plug-In . SVG Version: 6.00 Build 0)  -->
<!DOCTYPE svg PUBLIC "-//W3C//DTD SVG 1.1//EN" "http://www.w3.org/Graphics/SVG/1.1/DTD/svg11.dtd">
<svg version="1.1" id="Layer_1" xmlns="http://www.w3.org/2000/svg" xmlns:xlink="http://www.w3.org/1999/xlink" x="0px" y="0px"
	 viewBox="200 -90 240 240" enable-background="new 200 -90 240 240" xml:space="preserve">
<g transform="matrix(1.25,0,0,-1.25,0,633.75)">
	<g>
		<g>
			<g transform="translate(176.3193,16.1807)">
				<path fill="#E34E48" d="M103.2,376.6c0-3.2-10.5-5.8-23.5-5.8c-13,0-23.5,2.6-23.5,5.8l-2,29.8l-5.7,9.5c0,0,11.4-4.6,30.8-4.6
					s31,4.7,31,4.7l-5.1-8.7L103.2,376.6z"/>
			</g>
			<g transform="translate(1.4824,369.9614)">
				<path fill="#E34E48" d="M211.6,157.2l9.5-91.2c0,0,8.2-6.4,32.7-6.4c24.6,0,33,6.3,33,6.3l10.2,91.4c0,0-5.8-4.8-43-4.8
					C216.8,152.5,211.6,157.2,211.6,157.2"/>
			</g>
			<g transform="translate(228.333,379)">
				<path fill="#E34E48" d="M70.9,151.6c0-3.4-19.4-6.1-43.2-6.1c-23.9,0-43.2,2.7-43.2,6.1c0,3.4,19.4,6.1,43.2,6.1
					C51.5,157.7,70.9,154.9,70.9,151.6"/>
			</g>
			<g transform="translate(155.0967,371.0713)">
				<path fill="#FFFFFF" d="M116.3,156.5c0.7,0.1,1.9,0.2,1.9,1.1c0,0.5-0.4,0.8-0.9,1l-0.4-0.6c0.3-0.1,0.5-0.2,0.5-0.3
					c0-0.3-2.3-0.5-4.3-0.5c-1.9,0-4.4,0.2-4.4,0.5c0,0.1,0.1,0.1,0.3,0.2l-0.4,0.6c-0.4-0.2-0.7-0.4-0.7-0.9c0-0.2,0.1-0.6,0.3-0.7
					c0.7-0.6,2.4-0.7,4.9-0.7C115.5,156.3,116.3,156.5,116.3,156.5"/>
			</g>
			<g transform="translate(227.4678,493.0547)">
				<path fill="#E34E48" d="M71.4,80.8c-0.5-0.6-2.2,0-3.8,1.3c-1.5,1.3-2.4,2.9-1.8,3.6c0.5,0.6,2.2,0,3.8-1.3
					C71.2,83,72,81.5,71.4,80.8"/>
			</g>
			<g transform="translate(212.7188,505.8276)">
				<path fill="#E34E48" d="M80.6,72.9l-22.7-24l-4.5-18.3l7.5-0.3l3.9,15.3l21.4,22.5L80.6,72.9z"/>
			</g>
			<g transform="translate(18.2344,207.7656)">
				<path fill="#FFFFFF" d="M201.2,257.8c5.9-2.9,10.5,2.9,13.1,5.3c0.2-1.6-4.2-10.6-1.5-11.4c2.7-0.8,3.8,6.5,5.9,13.4
					c1.9,6.2,4.7,13.2,2.1,13.9c-2.6,0.7-3.4-6.1-4.6-8.4c-1.7-3.3-11.7-14.2-12.9-6.1c-0.9,6.4,6.2,19.2,9.5,22.4
					c1.7,1.6,4.2,3.1,6.1,2.7c2.6-0.6,2.8-5.1,4.9-4.9c5.1,0.3-0.9,8.9-5.3,9.1c-9.9,0.5-16.1-14.8-18.7-22.2
					C199.5,269.4,201.2,257.8,201.2,257.8"/>
			</g>
			<g transform="translate(209.667,220)">
				<path fill="#FFFFFF" d="M82.5,250.2c-3-3-13.1-8.6-13.7-2.4c-0.5,4.9,10.7,12,7.8,12.2c-6.2-0.4-9.3-7.2-12.4-14.5
					c-1.1-2.6-5-13.9-7.6-12.5c-2.6,1.4,3.3,10.7,5,16.2c-1.9-1.4-8.9-6.8-10.7-1.7c-2.9-2.5-9.1-3.8-8.4,2.7
					c-1.5-2.7-5-6.5-9.1-4.9c-5.4,2.1,3.1,19.4,5.3,18.5c2.1-0.9-0.4-4.8-1.1-6.3c-1.5-3.4-3.2-7.6-2-8.5c2-1.5,7.3,5.6,7.4,5.8
					c1,1.3,3.8,9.9,6.1,8.9s-5.7-12.3-2.7-14.6c0.6-0.5,3.1,0.3,4.6,1.9c1,1,0.6,3.4,3.9,11.1c3.2,7.7,6.1,17.3,8.3,16.5
					s0.4-5.6-0.4-7.5c-3.7-8.6-10.2-22.8-7.1-21.7c3,1.1,4.6,1.1,7.6,4.6c3,3.5,2.8,9.2,4.8,9.1c2-0.1,1.7-2,1.2-3.4
					c2,2.2,9.3,6.9,11,2.3c2.1-5.5-10.4-13.5-7.3-13.1s8.2,3.7,10.3,6.6C83.1,255.3,82.5,250.2,82.5,250.2"/>
			</g>
		</g>
	</g>
</g>
</svg>
