<?xml version="1.0" encoding="utf-8"?>
<!-- Generator: Adobe Illustrator 18.1.1, SVG Export Plug-In . SVG Version: 6.00 Build 0)  -->
<!DOCTYPE svg PUBLIC "-//W3C//DTD SVG 1.1//EN" "http://www.w3.org/Graphics/SVG/1.1/DTD/svg11.dtd">
<svg version="1.1" id="Layer_1" xmlns="http://www.w3.org/2000/svg" xmlns:xlink="http://www.w3.org/1999/xlink" x="0px" y="0px"
	 viewBox="-257 -1.5 125 125" enable-background="new -257 -1.5 125 125" xml:space="preserve">
<path d="M-252.4,28c0,1.4-0.8,2.4-2.3,2.4c-1.2,0-2.1-1-2.1-2.4c0-1.3,1-2.4,2.2-2.4C-253.2,25.6-252.4,26.7-252.4,28z M-255.7,99.5
	V44.8h2.2v54.7H-255.7z"/>
<path d="M-178.8,60.5c0,27.6-15.3,40.1-32.1,40.1c-17.1,0-31-13.6-31-39c0-26.1,14.4-40.1,32.2-40.1
	C-192.2,21.5-178.8,35.3-178.8,60.5z M-239.6,61.1c0,20.9,10.1,37.2,28.8,37.2c18.8,0,29.6-16.8,29.6-37.4
	c0-19.2-8.6-36.6-28.4-36.6S-239.6,40.7-239.6,61.1z"/>
<path d="M-170.6,93.6c3.8,2.5,10.3,4.9,15.8,4.9c10.6,0,20-7.4,20-18.3c0-10.1-6.3-15.4-16.9-20c-9.5-4.1-18.1-8.5-18.1-19.3
	c0-11.3,8.9-19.3,21-19.3c6.5,0,11.4,1.8,13.7,3.4l-0.9,2c-1.9-1.4-7.2-3.1-12.9-3.1c-12.8,0-18.3,9.6-18.3,16.8
	c0,9.8,7.6,13.1,17.4,17.8c11.4,5.6,17.4,10.5,17.4,21.2c0,11.5-8.2,20.9-22.8,20.9c-6,0-13-2.1-16.4-4.7L-170.6,93.6z"/>
</svg>
