<?xml version="1.0" encoding="utf-8"?>
<!-- Generator: Adobe Illustrator 18.1.1, SVG Export Plug-In . SVG Version: 6.00 Build 0)  -->
<!DOCTYPE svg PUBLIC "-//W3C//DTD SVG 1.1//EN" "http://www.w3.org/Graphics/SVG/1.1/DTD/svg11.dtd">
<svg version="1.1" id="Logotipo" xmlns="http://www.w3.org/2000/svg" xmlns:xlink="http://www.w3.org/1999/xlink" x="0px" y="0px"
	 viewBox="0 0 91.6 90.7" enable-background="new 0 0 91.6 90.7" xml:space="preserve">
<g>
	<path fill="#136BB0" d="M9.8,18.4l0.4-1.4c-0.2,0,1.8-3.2,1.6-3.2C-3.4,28.6-2,48.2,5.3,62.4c5.1,9.9,14.4,19.1,25.5,24.1
		c5.1,2.3,13,4.4,21.3,4.2c17.7-0.4,30-8.7,37-22.3l0.4-1.1c-6.2,6.2-16.2,10.5-24.1,11.3C32.6,82-1.1,52.7,9.8,18.4z"/>
	<path fill="#136BB0" d="M53.3,23.4c4.3,7,12.6,13.1,25.5,10.3c3.3-0.7,10.6-6.2,11.9-9.2c-11.1,7.5-17.9,5-21.2,4.1
		c-0.7-0.2-2.4-0.9-3.9-1.9c-3.4-2.1-5.1-3-7.8-6.9c-1.5-2.1-2.9-5.5-3.4-7.5C53.6,9.2,53.9,4.2,55.4,0c-5,4.5-5.8,13.1-4.1,18.8
		C51.5,19.5,52.7,22.4,53.3,23.4z"/>
	<path fill="#136BB0" d="M56.9,60.3c17.3,2.3,30.2-5,34.7-16.3c-5.1,5.4-13.7,9.3-22,9.2C51.2,53,30.4,36.5,32.8,13.5
		c0.2-2,1-5.1,3.1-9.1c-6.1,7.7-9.8,14.1-8.8,24.7C28.5,43.7,42.4,58.3,56.9,60.3z"/>
</g>
</svg>
