<?xml version="1.0" encoding="utf-8"?>
<!-- Generator: Adobe Illustrator 18.1.1, SVG Export Plug-In . SVG Version: 6.00 Build 0)  -->
<!DOCTYPE svg PUBLIC "-//W3C//DTD SVG 1.1//EN" "http://www.w3.org/Graphics/SVG/1.1/DTD/svg11.dtd">
<svg version="1.1" id="Layer_1" xmlns="http://www.w3.org/2000/svg" xmlns:xlink="http://www.w3.org/1999/xlink" x="0px" y="0px"
	 viewBox="0 0 144.3 157.4" enable-background="new 0 0 144.3 157.4" xml:space="preserve">
<g>
	<path fill-rule="evenodd" clip-rule="evenodd" fill="#FFFFFF" d="M82,150.5c-0.5-2.9-2-7.9-4.2-10.8c-0.6-0.7-1.6-1.2-2.5-1.2H5
		c-3.7,0-5-1.3-5-5V21c0-1.2,1-2.2,2.2-2.2h139.9c1.2,0,2.2,1,2.2,2.2v112.4c0,3.7-1.3,5-5,5l-46.1,0.2c-0.6,0-0.6,1-0.7,1.6
		c-0.2,2.5,1,5.7,2.2,7.7c1.2,2.1,1.5,4.5,0.4,6.3c-1.2,2.1-4,3.7-7,3.1C85.1,156.7,82.7,154.2,82,150.5z"/>
	<path fill-rule="evenodd" clip-rule="evenodd" fill="#FCFCFC" d="M0.3,133.3c0.1,3.6,1.4,4.9,5.1,4.9h69.8c0.9,0,1.9,0.5,2.5,1.2
		c2.3,2.8,3.8,7.7,4.4,10.7c0.7,3.7,3.1,6.3,6,7c2.9,0.6,5.7-1,6.9-3.1c1-1.9,0.6-4.3-0.6-6.4c-1.1-2.1-2.4-5.2-2.1-7.7
		c0.1-0.6,0.1-1.5,0.7-1.5l45.9-0.2c3.7,0,5-1.3,5.1-4.9c0-1.1,0.1-2.2,0.1-3.4V21.3c0-1.2-1-2.2-2.2-2.2H2.5c-1.2,0-2.2,1-2.2,2.2
		v108.6C0.2,131.1,0.3,132.2,0.3,133.3z"/>
	<path fill-rule="evenodd" clip-rule="evenodd" fill="#F7F7F7" d="M0.6,133.3c0.1,3.5,1.5,4.7,5.1,4.7h69.5c0.9,0,1.9,0.5,2.5,1.2
		c2.3,2.8,3.9,7.6,4.5,10.6c0.7,3.7,3,6.3,5.8,7.1c2.9,0.5,5.6-1,6.8-3c0.9-1.9,0.5-4.3-0.7-6.5c-1.1-2.1-2.4-5.3-2.1-7.7
		c0.1-0.5,0.1-1.5,0.7-1.5l45.8-0.2c3.6,0,5-1.2,5.2-4.7c0.1-1.1,0.1-2.2,0.1-3.3V21.6c0-1.2-1-2.2-2.2-2.2H2.7
		c-1.2,0-2.2,1-2.2,2.2v108.3C0.5,131.1,0.6,132.2,0.6,133.3z"/>
	<path fill-rule="evenodd" clip-rule="evenodd" fill="#F5F5F5" d="M1,133.2c0.2,3.4,1.6,4.5,5.2,4.5h69.1c0.9,0,1.9,0.5,2.5,1.1
		c2.4,2.7,4,7.4,4.6,10.5c0.7,3.7,2.9,6.4,5.6,7.2c2.8,0.5,5.5-1,6.7-3c0.8-1.9,0.4-4.4-0.8-6.5c-1.1-2.2-2.4-5.3-2-7.7
		c0.1-0.5,0.2-1.4,0.7-1.4l45.6-0.2c3.6,0,5-1.2,5.2-4.5c0.1-1,0.2-2.1,0.2-3.3v-108c0-1.2-1-2.2-2.2-2.2H3c-1.2,0-2.2,1-2.2,2.2
		v108C0.8,131.1,0.9,132.2,1,133.2z"/>
	<path fill-rule="evenodd" clip-rule="evenodd" fill="#F0F0F0" d="M1.3,133.1c0.3,3.2,1.7,4.4,5.3,4.4h68.7c0.9,0,1.9,0.4,2.5,1.1
		c2.4,2.6,4.1,7.2,4.8,10.5c0.6,3.7,2.8,6.4,5.5,7.3c2.8,0.4,5.4-1.1,6.6-3c0.7-2,0.3-4.4-1-6.6c-1.1-2.3-2.4-5.4-2-7.7
		c0.1-0.5,0.2-1.4,0.7-1.4l45.5-0.2c3.5,0,5-1.1,5.3-4.4c0.1-1,0.3-2.1,0.3-3.2V22.2c0-1.2-1-2.2-2.2-2.2H3.2c-1.2,0-2.2,1-2.2,2.2
		v107.7C1,131,1.1,132.2,1.3,133.1z"/>
	<path fill-rule="evenodd" clip-rule="evenodd" fill="#EBEBEB" d="M1.6,133.1c0.4,3.1,1.8,4.2,5.3,4.2h68.3c0.9,0,1.9,0.4,2.5,1.1
		c2.5,2.6,4.2,7.1,4.9,10.4c0.6,3.7,2.7,6.4,5.3,7.4c2.7,0.4,5.3-1.1,6.6-2.9c0.6-2,0.1-4.5-1.1-6.7c-1.1-2.4-2.4-5.5-1.9-7.8
		c0.1-0.5,0.2-1.4,0.8-1.4l45.3-0.2c3.5,0,5-1.1,5.4-4.2c0.2-1,0.4-2.1,0.4-3.2V22.4c0-1.2-1-2.2-2.2-2.2H3.5c-1.2,0-2.2,1-2.2,2.2
		v107.4C1.3,131,1.4,132.1,1.6,133.1z"/>
	<path fill-rule="evenodd" clip-rule="evenodd" fill="#E8E8E8" d="M1.9,133c0.4,3,1.9,4.1,5.4,4.1h68c0.9,0,1.9,0.4,2.5,1
		c2.5,2.5,4.2,6.9,5.1,10.3c0.6,3.7,2.6,6.4,5.1,7.6c2.7,0.4,5.2-1.1,6.5-2.9c0.5-2,0-4.5-1.2-6.7c-1.1-2.5-2.3-5.6-1.9-7.8
		c0.1-0.5,0.2-1.3,0.8-1.3l45.1-0.2c3.5,0,5-1.1,5.5-4.1c0.2-0.9,0.4-2,0.4-3.2V22.7c0-1.2-1-2.2-2.2-2.2H3.7c-1.2,0-2.2,1-2.2,2.2
		v107.1C1.5,131,1.7,132.1,1.9,133z"/>
	<path fill-rule="evenodd" clip-rule="evenodd" fill="#E3E3E3" d="M2.3,133c0.5,2.9,2,3.9,5.4,3.9h67.6c0.9,0,1.9,0.4,2.5,1
		c2.5,2.4,4.3,6.8,5.2,10.2c0.6,3.7,2.6,6.5,5,7.7c2.6,0.3,5.2-1.1,6.4-2.9c0.5-2.1-0.1-4.6-1.4-6.8c-1.1-2.5-2.3-5.6-1.8-7.8
		c0.1-0.5,0.2-1.3,0.8-1.3l45-0.1c3.4,0,5-1,5.5-3.9c0.3-0.9,0.5-2,0.5-3.1V23c0-1.2-1-2.2-2.2-2.2H4c-1.2,0-2.2,1-2.2,2.2v106.8
		C1.8,131,2,132.1,2.3,133z"/>
	<path fill-rule="evenodd" clip-rule="evenodd" fill="#E0E0E0" d="M2.6,132.9c0.6,2.8,2.1,3.7,5.5,3.7h67.2c0.9,0,1.9,0.4,2.5,1
		c2.6,2.3,4.4,6.6,5.3,10.1c0.6,3.7,2.5,6.5,4.8,7.8c2.6,0.3,5.1-1.1,6.3-2.8c0.4-2.1-0.2-4.6-1.5-6.9c-1.1-2.6-2.3-5.7-1.8-7.8
		c0.1-0.5,0.2-1.2,0.8-1.2l44.8-0.1c3.4,0,5-1,5.6-3.7c0.3-0.8,0.6-1.9,0.6-3.1V23.3c0-1.2-1-2.2-2.2-2.2H4.2c-1.2,0-2.2,1-2.2,2.2
		v106.5C2,131,2.3,132.1,2.6,132.9z"/>
	<path fill-rule="evenodd" clip-rule="evenodd" fill="#DBDBDB" d="M2.9,132.8c0.7,2.6,2.3,3.6,5.6,3.6h66.8c0.9,0,1.9,0.4,2.5,0.9
		c2.6,2.3,4.5,6.4,5.5,10c0.6,3.7,2.4,6.5,4.6,7.9c2.5,0.2,5-1.1,6.3-2.8c0.3-2.1-0.4-4.6-1.6-7c-1.1-2.7-2.3-5.8-1.7-7.8
		c0.1-0.5,0.3-1.2,0.8-1.2l44.7-0.1c3.3,0,5-0.9,5.7-3.6c0.4-0.8,0.6-1.9,0.6-3.1V23.6c0-1.2-1-2.2-2.2-2.2H4.5
		c-1.2,0-2.2,1-2.2,2.2v106.2C2.3,130.9,2.6,132,2.9,132.8z"/>
	<path fill-rule="evenodd" clip-rule="evenodd" fill="#D6D6D6" d="M3.2,132.8c0.7,2.5,2.4,3.4,5.6,3.4h66.5c0.9,0,1.9,0.4,2.5,0.9
		c2.6,2.2,4.6,6.3,5.6,9.9c0.6,3.7,2.3,6.5,4.5,8.1c2.5,0.2,4.9-1.1,6.2-2.8c0.2-2.1-0.5-4.7-1.8-7c-1.1-2.8-2.3-5.8-1.7-7.8
		c0.1-0.4,0.3-1.1,0.8-1.1l44.5-0.1c3.3,0,5-0.9,5.8-3.4c0.4-0.8,0.7-1.9,0.7-3V23.8c0-1.2-1-2.2-2.2-2.2H4.7c-1.2,0-2.2,1-2.2,2.2
		v105.9C2.5,130.9,2.8,132,3.2,132.8z"/>
	<path fill-rule="evenodd" clip-rule="evenodd" fill="#D4D4D4" d="M3.6,132.7c0.8,2.4,2.5,3.2,5.7,3.2h66.1c0.9,0,1.9,0.4,2.5,0.9
		c2.7,2.1,4.7,6.1,5.7,9.8c0.6,3.7,2.3,6.6,4.3,8.2c2.4,0.1,4.8-1.1,6.1-2.7c0.1-2.2-0.6-4.7-1.9-7.1c-1.1-2.9-2.3-5.9-1.6-7.8
		c0.1-0.4,0.3-1.1,0.8-1.1l44.4-0.1c3.3,0,5-0.9,5.8-3.2c0.4-0.7,0.8-1.8,0.8-3V24.1c0-1.2-1-2.2-2.2-2.2H5c-1.2,0-2.2,1-2.2,2.2
		v105.6C2.8,130.9,3.1,132,3.6,132.7z"/>
	<path fill-rule="evenodd" clip-rule="evenodd" fill="#CFCFCF" d="M3.9,132.7c0.9,2.3,2.6,3.1,5.7,3.1h65.7c0.9,0,1.9,0.3,2.5,0.8
		c2.7,2,4.8,5.9,5.8,9.7c0.6,3.7,2.2,6.6,4.2,8.3c2.4,0.1,4.7-1.1,6-2.7c0-2.2-0.7-4.8-2.1-7.2c-1.1-2.9-2.2-5.9-1.6-7.8
		c0.1-0.4,0.3-1.1,0.9-1.1l44.2-0.1c3.2,0,5-0.8,5.9-3.1c0.5-0.7,0.9-1.8,0.9-2.9V24.4c0-1.2-1-2.2-2.2-2.2H5.2
		c-1.2,0-2.2,1-2.2,2.2v105.3C3,130.9,3.4,132,3.9,132.7z"/>
	<path fill-rule="evenodd" clip-rule="evenodd" fill="#CCCCCC" d="M4.2,132.6c1,2.2,2.7,2.9,5.8,2.9h65.4c0.9,0,1.8,0.3,2.5,0.8
		c2.8,2,4.9,5.8,6,9.6c0.5,3.6,2.1,6.6,4,8.4c2.3,0.1,4.6-1.1,6-2.6c0-2.2-0.9-4.8-2.2-7.2c-1.1-3-2.2-6-1.5-7.9
		c0.1-0.4,0.3-1,0.9-1l44-0.1c3.2,0,5-0.8,6-2.9c0.5-0.6,0.9-1.7,0.9-2.9v-105c0-1.2-1-2.2-2.2-2.2H5.5c-1.2,0-2.2,1-2.2,2.2v105
		C3.3,130.9,3.7,132,4.2,132.6z"/>
	<path fill-rule="evenodd" clip-rule="evenodd" fill="#C7C7C7" d="M4.5,132.6c1,2,2.8,2.8,5.8,2.8h65c0.9,0,1.8,0.3,2.5,0.8
		c2.8,1.9,5,5.6,6.1,9.5c0.5,3.6,2,6.6,3.8,8.5c2.3,0,4.5-1.1,5.9-2.6c-0.1-2.3-1-4.9-2.3-7.3c-1.1-3.1-2.2-6.1-1.5-7.9
		c0.2-0.4,0.4-1,0.9-1l43.9-0.1c3.1,0,5-0.7,6-2.8c0.6-0.6,1-1.7,1-2.9V25c0-1.2-1-2.2-2.2-2.2H5.7c-1.2,0-2.2,1-2.2,2.2v104.7
		C3.5,130.9,4,131.9,4.5,132.6z"/>
	<path fill-rule="evenodd" clip-rule="evenodd" fill="#C2C2C2" d="M4.8,132.5c1.1,1.9,2.9,2.6,5.9,2.6h64.6c0.9,0,1.8,0.3,2.5,0.7
		c2.8,1.8,5,5.5,6.2,9.4c0.5,3.6,1.9,6.7,3.6,8.7c2.3,0,4.5-1.2,5.8-2.6c-0.2-2.3-1.1-4.9-2.5-7.4c-1.1-3.2-2.2-6.2-1.4-7.9
		c0.2-0.4,0.4-0.9,0.9-0.9l43.7-0.1c3.1,0,4.9-0.7,6.1-2.6c0.6-0.6,1.1-1.6,1.1-2.8V25.3c0-1.2-1-2.2-2.2-2.2H6
		c-1.2,0-2.2,1-2.2,2.2v104.4C3.8,130.8,4.2,131.9,4.8,132.5z"/>
	<path fill-rule="evenodd" clip-rule="evenodd" fill="#BFBFBF" d="M5.2,132.4c1.2,1.8,3,2.4,5.9,2.4h64.2c0.9,0,1.8,0.3,2.5,0.7
		c2.9,1.8,5.1,5.3,6.4,9.3c0.5,3.6,1.9,6.7,3.5,8.8c2.2-0.1,4.4-1.2,5.7-2.5c-0.3-2.4-1.2-5-2.6-7.4c-1.1-3.3-2.2-6.2-1.4-7.9
		c0.2-0.4,0.4-0.9,0.9-0.9l43.6-0.1c3,0,4.9-0.6,6.2-2.4c0.6-0.5,1.1-1.6,1.1-2.8V25.5c0-1.2-1-2.2-2.2-2.2H6.2
		c-1.2,0-2.2,1-2.2,2.2v104.1C4,130.8,4.5,131.9,5.2,132.4z"/>
	<path fill-rule="evenodd" clip-rule="evenodd" fill="#BABABA" d="M5.5,132.4c1.2,1.7,3.1,2.3,6,2.3h63.9c0.9,0,1.8,0.3,2.5,0.7
		c2.9,1.7,5.2,5.1,6.5,9.2c0.5,3.6,1.8,6.7,3.3,8.9c2.2-0.1,4.3-1.2,5.7-2.5c-0.4-2.4-1.3-5-2.7-7.5c-1.1-3.4-2.2-6.3-1.3-7.9
		c0.2-0.4,0.4-0.9,0.9-0.9l43.4-0.1c3,0,4.9-0.6,6.3-2.3c0.7-0.5,1.2-1.6,1.2-2.8V25.8c0-1.2-1-2.2-2.2-2.2H6.5
		c-1.2,0-2.2,1-2.2,2.2v103.8C4.3,130.8,4.8,131.9,5.5,132.4z"/>
	<path fill-rule="evenodd" clip-rule="evenodd" fill="#B5B5B5" d="M5.8,132.3c1.3,1.6,3.2,2.1,6.1,2.1h63.5c0.9,0,1.8,0.2,2.5,0.6
		c3,1.6,5.3,5,6.7,9.2c0.5,3.6,1.7,6.8,3.1,9c2.1-0.1,4.2-1.2,5.6-2.5c-0.5-2.4-1.5-5.1-2.9-7.6c-1.1-3.4-2.1-6.4-1.3-7.9
		c0.2-0.3,0.4-0.8,1-0.8l43.2-0.1c3,0,4.9-0.6,6.3-2.1c0.7-0.5,1.3-1.5,1.3-2.7V26.1c0-1.2-1-2.2-2.2-2.2H6.7c-1.2,0-2.2,1-2.2,2.2
		v103.5C4.5,130.8,5.1,131.8,5.8,132.3z"/>
	<path fill-rule="evenodd" clip-rule="evenodd" fill="#B3B3B3" d="M6.1,132.3c1.4,1.4,3.3,1.9,6.1,1.9h63.1c0.9,0,1.8,0.2,2.5,0.6
		c3,1.5,5.4,4.8,6.8,9.1c0.5,3.6,1.6,6.8,3,9.2c2.1-0.2,4.1-1.2,5.5-2.4c-0.5-2.5-1.6-5.1-3-7.6c-1.1-3.5-2.1-6.4-1.2-7.9
		c0.2-0.3,0.5-0.8,1-0.8l43.1-0.1c2.9,0,4.9-0.5,6.4-1.9c0.7-0.4,1.4-1.5,1.4-2.7V26.4c0-1.2-1-2.2-2.2-2.2H7c-1.2,0-2.2,1-2.2,2.2
		v103.2C4.8,130.8,5.4,131.8,6.1,132.3z"/>
	<path fill-rule="evenodd" clip-rule="evenodd" fill="#ADADAD" d="M6.5,132.2c1.5,1.3,3.4,1.8,6.2,1.8h62.8c0.9,0,1.8,0.2,2.5,0.6
		c3,1.5,5.5,4.6,6.9,9c0.5,3.6,1.5,6.8,2.8,9.3c2-0.2,4-1.2,5.4-2.4c-0.6-2.5-1.7-5.2-3.2-7.7c-1.1-3.6-2.1-6.5-1.2-7.9
		c0.2-0.3,0.5-0.7,1-0.7l42.9-0.1c2.9,0,4.9-0.5,6.5-1.8c0.8-0.4,1.4-1.4,1.4-2.6V26.7c0-1.2-1-2.2-2.2-2.2H7.2
		c-1.2,0-2.2,1-2.2,2.2v102.9C5,130.8,5.7,131.8,6.5,132.2z"/>
	<path fill-rule="evenodd" clip-rule="evenodd" fill="#ABABAB" d="M6.8,132.1c1.5,1.2,3.5,1.6,6.2,1.6h62.4c0.9,0,1.8,0.2,2.6,0.5
		c3.1,1.4,5.6,4.5,7,8.9c0.5,3.6,1.5,6.8,2.6,9.4c2-0.3,3.9-1.2,5.4-2.4c-0.7-2.5-1.9-5.2-3.3-7.8c-1.1-3.7-2.1-6.6-1.1-7.9
		c0.2-0.3,0.5-0.7,1-0.7l42.8-0.1c2.8,0,4.9-0.4,6.5-1.6c0.8-0.4,1.5-1.4,1.5-2.6V26.9c0-1.2-1-2.2-2.2-2.2H7.5
		c-1.2,0-2.2,1-2.2,2.2v102.6C5.3,130.7,6,131.8,6.8,132.1z"/>
	<path fill-rule="evenodd" clip-rule="evenodd" fill="#A6A6A6" d="M7.1,132.1c1.6,1.1,3.6,1.5,6.3,1.5h62c0.9,0,1.8,0.2,2.6,0.5
		c3.1,1.3,5.7,4.3,7.2,8.8c0.4,3.6,1.4,6.9,2.5,9.5c1.9-0.3,3.8-1.2,5.3-2.3c-0.8-2.5-2-5.2-3.4-7.8c-1.1-3.8-2.1-6.6-1.1-8
		c0.2-0.3,0.5-0.6,1-0.6l42.6-0.1c2.8,0,4.9-0.4,6.6-1.5c0.9-0.3,1.6-1.4,1.6-2.6V27.2c0-1.2-1-2.2-2.2-2.2H7.7
		c-1.2,0-2.2,1-2.2,2.2v102.3C5.5,130.7,6.2,131.7,7.1,132.1z"/>
	<path fill-rule="evenodd" clip-rule="evenodd" fill="#A1A1A1" d="M7.4,132c1.7,1,3.7,1.3,6.3,1.3h61.6c0.9,0,1.8,0.2,2.5,0.5
		c3.2,1.2,5.8,4.1,7.3,8.7c0.4,3.6,1.3,6.9,2.3,9.6c1.9-0.3,3.8-1.3,5.2-2.3c-0.9-2.6-2.1-5.3-3.6-7.9c-1.1-3.8-2.1-6.7-1-8
		c0.2-0.3,0.5-0.6,1-0.6l42.5,0c2.8,0,4.9-0.4,6.7-1.3c0.9-0.3,1.6-1.3,1.6-2.5v-102c0-1.2-1-2.2-2.2-2.2H8c-1.2,0-2.2,1-2.2,2.2
		v102C5.8,130.7,6.5,131.7,7.4,132z"/>
	<path fill-rule="evenodd" clip-rule="evenodd" fill="#9E9E9E" d="M7.7,132c1.8,0.8,3.8,1.1,6.4,1.1h61.2c0.9,0,1.8,0.2,2.6,0.5
		c3.2,1.2,5.9,4,7.5,8.6c0.4,3.6,1.2,6.9,2.1,9.8c1.9-0.4,3.7-1.3,5.1-2.3c-1-2.6-2.2-5.3-3.7-8c-1.1-3.9-2.1-6.8-1-8
		c0.2-0.3,0.5-0.6,1-0.6l42.3,0c2.7,0,4.9-0.3,6.8-1.1c0.9-0.3,1.7-1.3,1.7-2.5V27.8c0-1.2-1-2.2-2.2-2.2H8.2c-1.2,0-2.2,1-2.2,2.2
		v101.7C6,130.7,6.8,131.7,7.7,132z"/>
	<path fill-rule="evenodd" clip-rule="evenodd" fill="#999999" d="M8.1,131.9c1.8,0.7,3.9,1,6.5,1h60.9c0.9,0,1.8,0.1,2.6,0.4
		c3.2,1.1,6,3.8,7.6,8.5c0.4,3.6,1.1,6.9,2,9.9c1.8-0.4,3.6-1.3,5.1-2.2c-1.1-2.6-2.4-5.4-3.8-8c-1.1-4-2-6.8-0.9-8
		c0.2-0.2,0.5-0.5,1-0.5l42.2,0c2.7,0,4.9-0.2,6.8-1c1-0.2,1.8-1.2,1.8-2.4V28.1c0-1.2-1-2.2-2.2-2.2H8.5c-1.2,0-2.2,1-2.2,2.2
		v101.4C6.3,130.7,7.1,131.7,8.1,131.9z"/>
	<path fill-rule="evenodd" clip-rule="evenodd" fill="#969696" d="M8.4,131.8c1.9,0.6,4,0.8,6.5,0.8h60.5c0.9,0,1.8,0.1,2.6,0.4
		c3.3,1,6,3.7,7.7,8.4c0.4,3.6,1,6.9,1.8,10c1.8-0.5,3.5-1.3,5-2.2c-1.1-2.7-2.5-5.4-4-8.1c-1.1-4.1-2-6.9-0.9-8
		c0.2-0.2,0.6-0.5,1.1-0.5l42,0c2.6,0,4.9-0.2,6.9-0.8c1-0.2,1.8-1.2,1.8-2.4V28.3c0-1.2-1-2.2-2.2-2.2H8.7c-1.2,0-2.2,1-2.2,2.2
		v101.1C6.5,130.7,7.4,131.7,8.4,131.8z"/>
	<path fill-rule="evenodd" clip-rule="evenodd" fill="#919191" d="M8.7,131.8c2,0.5,4.1,0.6,6.6,0.6h60.1c0.9,0,1.8,0.1,2.6,0.4
		c3.3,1,6.1,3.5,7.9,8.3c0.4,3.6,1,7,1.6,10.1c1.7-0.5,3.4-1.3,4.9-2.2c-1.2-2.7-2.6-5.5-4.1-8.2c-1.1-4.2-2-7-0.8-8
		c0.2-0.2,0.6-0.4,1.1-0.4l41.8,0c2.6,0,4.9-0.2,7-0.6c1.1-0.1,1.9-1.1,1.9-2.4V28.6c0-1.2-1-2.2-2.2-2.2H9c-1.2,0-2.2,1-2.2,2.2
		v100.8C6.8,130.6,7.6,131.6,8.7,131.8z"/>
	<path fill-rule="evenodd" clip-rule="evenodd" fill="#8C8C8C" d="M9,131.7c2,0.4,4.2,0.5,6.6,0.5h59.8c0.9,0,1.8,0.1,2.6,0.3
		c3.4,0.9,6.2,3.3,8,8.2c0.4,3.6,0.9,7,1.5,10.3c1.7-0.5,3.3-1.3,4.8-2.1c-1.3-2.7-2.7-5.5-4.2-8.3c-1.1-4.2-2-7-0.8-8
		c0.3-0.2,0.6-0.4,1.1-0.4l41.7,0c2.5,0,4.9-0.1,7-0.5c1.1-0.1,2-1.1,2-2.3V28.9c0-1.2-1-2.2-2.2-2.2H9.2c-1.2,0-2.2,1-2.2,2.2
		v100.5C7,130.6,7.9,131.6,9,131.7z"/>
	<path fill-rule="evenodd" clip-rule="evenodd" fill="#8A8A8A" d="M9.4,131.7c2.1,0.2,4.3,0.3,6.7,0.3h59.4c0.9,0,1.8,0.1,2.6,0.3
		c3.4,0.8,6.3,3.2,8.1,8.1c0.4,3.5,0.8,7,1.3,10.4c1.6-0.6,3.2-1.3,4.8-2.1c-1.4-2.8-2.9-5.6-4.4-8.3c-1.1-4.3-2-7.1-0.7-8
		c0.3-0.2,0.6-0.3,1.1-0.3l41.5,0c2.5,0,4.9-0.1,7.1-0.3c1.1-0.1,2.1-1.1,2.1-2.3V29.2c0-1.2-1-2.2-2.2-2.2H9.5
		c-1.2,0-2.2,1-2.2,2.2v100.2C7.3,130.6,8.2,131.6,9.4,131.7z"/>
	<path fill-rule="evenodd" clip-rule="evenodd" fill="#858585" d="M9.7,131.6c2.2,0.1,4.4,0.2,6.7,0.2h59c0.9,0,1.8,0.1,2.6,0.2
		c3.4,0.7,6.4,3,8.3,8.1c0.3,3.5,0.7,7.1,1.1,10.5c1.6-0.6,3.2-1.3,4.7-2c-1.5-2.8-3-5.6-4.5-8.4c-1.1-4.4-2-7.2-0.7-8.1
		c0.3-0.2,0.6-0.3,1.1-0.3h41.4c2.5,0,4.9,0,7.2-0.2c1.2,0,2.1-1,2.1-2.2V29.5c0-1.2-1-2.2-2.2-2.2H9.8c-1.2,0-2.2,1-2.2,2.2v99.9
		C7.5,130.6,8.5,131.6,9.7,131.6z"/>
	<path fill-rule="evenodd" clip-rule="evenodd" fill="#828282" d="M87.4,150.4l-1-10.6c-2.4-6.4-6.4-8.2-11-8.2H10
		c-1.2,0-2.2-1-2.2-2.2V29.8c0-1.2,1-2.2,2.2-2.2h126.3c1.2,0,2.2,1,2.2,2.2v99.6c0,1.2-1,2.2-2.2,2.2H87.9c-2.8,0-1.9,2.9-0.5,8.3
		l4.7,8.5L87.4,150.4z"/>
	<linearGradient id="SVGID_1_" gradientUnits="userSpaceOnUse" x1="99.7649" y1="18.8146" x2="99.7649" y2="131.4547">
		<stop  offset="0" style="stop-color:#DEF0FA"/>
		<stop  offset="1" style="stop-color:#9ED1EB"/>
	</linearGradient>
	<path fill-rule="evenodd" clip-rule="evenodd" fill="url(#SVGID_1_)" d="M58.6,84.6h26c-4,15.7-3,31.3-0.1,46.9h56.4V18.8H80.6
		C69.5,37.2,59.5,56.6,58.6,84.6z"/>
	<linearGradient id="SVGID_2_" gradientUnits="userSpaceOnUse" x1="139.5121" y1="46.8283" x2="139.6631" y2="131.2053">
		<stop  offset="0" style="stop-color:#BAE3FA"/>
		<stop  offset="1" style="stop-color:#9ED1EB"/>
	</linearGradient>
	<polygon fill-rule="evenodd" clip-rule="evenodd" fill="url(#SVGID_2_)" points="140.9,131.5 140.9,21.4 138.2,21.5 138.2,131.3 	
		"/>
	<linearGradient id="SVGID_3_" gradientUnits="userSpaceOnUse" x1="104.1902" y1="21.3346" x2="104.1902" y2="46.3496">
		<stop  offset="0" style="stop-color:#F2FAFA"/>
		<stop  offset="1" style="stop-color:#E3F0F5"/>
	</linearGradient>
	<path fill-rule="evenodd" clip-rule="evenodd" fill="url(#SVGID_3_)" d="M67.5,42.8c24.5-0.2,48.4,1,73.4,4.1v-28H80.2L67.5,42.8z"
		/>
	<linearGradient id="SVGID_4_" gradientUnits="userSpaceOnUse" x1="109.8449" y1="18.8947" x2="109.8449" y2="46.4347">
		<stop  offset="0" style="stop-color:#EDF5FA"/>
		<stop  offset="1" style="stop-color:#D6E8F7"/>
	</linearGradient>
	<polygon fill-rule="evenodd" clip-rule="evenodd" fill="url(#SVGID_4_)" points="140.9,46.9 138.2,46.6 138.2,21.5 78.8,21.5 
		80.2,18.8 140.9,18.8 	"/>
	<rect x="84.5" y="130.2" fill-rule="evenodd" clip-rule="evenodd" fill="#82B5D4" width="56.4" height="1.3"/>
	<linearGradient id="SVGID_5_" gradientUnits="userSpaceOnUse" x1="43.5901" y1="18.8146" x2="43.5901" y2="131.4547">
		<stop  offset="0" style="stop-color:#8FD4FF"/>
		<stop  offset="1" style="stop-color:#0873F7"/>
	</linearGradient>
	<path fill-rule="evenodd" clip-rule="evenodd" fill="url(#SVGID_5_)" d="M2.9,18.8v112.6h81.4c-4-15.9-4.1-31.9,0-47.8
		c-2.7,2.1-22.5-1.6-25.2,0.5c0.9-24.9,10.3-45.5,21.2-65.4H2.9z"/>
	<linearGradient id="SVGID_6_" gradientUnits="userSpaceOnUse" x1="4.1723" y1="46.8283" x2="4.3232" y2="131.2053">
		<stop  offset="0" style="stop-color:#2B9EFA"/>
		<stop  offset="1" style="stop-color:#0A73F7"/>
	</linearGradient>
	<polygon fill-rule="evenodd" clip-rule="evenodd" fill="url(#SVGID_6_)" points="5.6,131.5 5.6,21.4 2.9,21.5 2.9,131.3 	"/>
	<rect x="2.9" y="130.2" fill-rule="evenodd" clip-rule="evenodd" fill="#0054E5" width="80.4" height="1.3"/>
	<linearGradient id="SVGID_7_" gradientUnits="userSpaceOnUse" x1="41.6501" y1="21.4748" x2="41.6501" y2="46.3498">
		<stop  offset="0" style="stop-color:#CFF5F5"/>
		<stop  offset="1" style="stop-color:#6ED4FF"/>
	</linearGradient>
	<path fill-rule="evenodd" clip-rule="evenodd" fill="url(#SVGID_7_)" d="M2.9,47.1c23-3.1,42.8-4.1,64.3-4.3l13.3-24H2.9V47.1z"/>
	<linearGradient id="SVGID_8_" gradientUnits="userSpaceOnUse" x1="41.6437" y1="19.4928" x2="41.3867" y2="46.7778">
		<stop  offset="0" style="stop-color:#B3EDFC"/>
		<stop  offset="1" style="stop-color:#45B3FA"/>
	</linearGradient>
	<polygon fill-rule="evenodd" clip-rule="evenodd" fill="url(#SVGID_8_)" points="2.9,47.1 2.9,18.8 80.4,18.8 78.9,21.5 5.6,21.5 
		5.6,46.7 	"/>
	
		<line fill-rule="evenodd" clip-rule="evenodd" fill="none" stroke="#000000" stroke-width="7.2" stroke-linecap="square" x1="40" y1="39.6" x2="40" y2="49.5"/>
	
		<line fill-rule="evenodd" clip-rule="evenodd" fill="none" stroke="#000000" stroke-width="7.2" stroke-linecap="square" x1="99.2" y1="39.6" x2="99.2" y2="49.5"/>
	<path fill-rule="evenodd" clip-rule="evenodd" fill="none" stroke="#000000" stroke-width="6.66" d="M24.9,98
		c1,0.7,5.4,2.8,8.3,3.9c5.9,2.2,17.8,6.3,38.7,6.5H72c20.9-0.2,32.8-4.3,38.7-6.5c2.9-1.1,7.3-3.2,8.3-3.9"/>
	<path fill-rule="evenodd" clip-rule="evenodd" fill="none" stroke="#000000" stroke-width="6.66" d="M93,2.1
		c-19.6,23.5-32.9,51-34.3,81.3h25.1c-6.2,25.2-2.9,46.7,7,66.7"/>
</g>
</svg>
