<?xml version="1.0" encoding="utf-8"?>
<!-- Generator: Adobe Illustrator 18.1.1, SVG Export Plug-In . SVG Version: 6.00 Build 0)  -->
<!DOCTYPE svg PUBLIC "-//W3C//DTD SVG 1.1//EN" "http://www.w3.org/Graphics/SVG/1.1/DTD/svg11.dtd">
<svg version="1.1" id="Layer_1" xmlns="http://www.w3.org/2000/svg" xmlns:xlink="http://www.w3.org/1999/xlink" x="0px" y="0px"
	 viewBox="-174.3 -35 144 144" enable-background="new -174.3 -35 144 144" xml:space="preserve">
<g>
	<path fill="#DB242F" d="M-132.4,30.2l-23,8.4c0.3,3.7,0.9,7.3,1.8,10.9l21.9-8C-132.4,37.9-132.7,34.1-132.4,30.2"/>
	<path fill="#DB242F" d="M-30.6,4.8c-1.6-3.3-3.5-6.5-5.6-9.5l-23,8.4c2.7,2.7,4.9,5.8,6.8,9.1L-30.6,4.8z"/>
	<path fill="#DB242F" d="M-81.3-1.7c4.8,2.2,8.9,5.3,12.4,8.9l23-8.4c-6.4-8.9-15.1-16.4-25.7-21.4C-104.4-38-143.7-23.7-159,9.2
		c-5,10.6-6.8,22-5.9,32.9l23-8.4c0.4-5,1.6-10,3.8-14.8C-128.2-2.4-102.7-11.7-81.3-1.7"/>
	<path fill="#DB242F" d="M-152.1,49l-21.9,8c2,8,5.5,15.6,10.3,22.3l23-8.4C-146.7,64.9-150.6,57.2-152.1,49"/>
	<path fill="#DB242F" d="M-56.7,40.3c-0.4,5-1.6,10-3.9,14.8c-10,21.4-35.5,30.7-56.9,20.7c-4.8-2.2-9-5.3-12.5-8.8l-23,8.4
		c6.4,8.9,15,16.4,25.7,21.4c32.9,15.3,72.2,1.1,87.5-31.9c5-10.6,6.8-22,5.9-32.9L-56.7,40.3z"/>
	<path fill="#DB242F" d="M-51.1,12.2l-21.9,8c4.1,7.3,6,15.7,5.4,24.1l23-8.4C-45.3,27.7-47.5,19.6-51.1,12.2"/>
</g>
</svg>
