<?xml version="1.0" encoding="utf-8"?>
<!-- Generator: Adobe Illustrator 18.1.1, SVG Export Plug-In . SVG Version: 6.00 Build 0)  -->
<!DOCTYPE svg PUBLIC "-//W3C//DTD SVG 1.1//EN" "http://www.w3.org/Graphics/SVG/1.1/DTD/svg11.dtd">
<svg version="1.1" id="Layer_1" xmlns="http://www.w3.org/2000/svg" xmlns:xlink="http://www.w3.org/1999/xlink" x="0px" y="0px"
	 viewBox="0 0 884.3 884.3" enable-background="new 0 0 884.3 884.3" xml:space="preserve">
<rect y="0" fill="#A72822" width="884.3" height="884.3"/>
<g>
	<path fill="#FFFFFF" d="M558.9,617.9c0,0,0.1-0.2,0.1-0.3c64.9-40.2,108.3-113.7,108.3-201.6c0-169.5-109.7-229.7-224.5-229.7
		c-108.3,0-225.9,85.1-225.9,232.9c0,169.5,109.7,231.6,224.5,231.6c18,0,35.6-2.2,52.4-6.2c0,0,0.2,0.1,0.4,0.1
		c45.2,80.8,112.6,61.2,129.9,54.9c0,0-2.3-14.2-6.4-40.7C585.3,658.1,570.8,641.8,558.9,617.9z M472.1,590.3
		c-10.3,2.5-20.7,3.5-30.7,3.5c-53.4,0-117.4-23.1-117.4-167c0-143.9,67-183.7,120.4-183.7c53.4,0,115.5,34.3,115.5,178.2
		c0,65.2-13.3,106.7-32.8,132.7c-0.3,0-0.5-0.1-0.5-0.1c-44.4-57.3-102-43.6-115.9-37.3c0,0,1.8,13.1,5.4,37
		c30.5,0,45.6,15.8,56.1,36.2C472.2,590.1,472.1,590.3,472.1,590.3z"/>
</g>
</svg>
