<?xml version="1.0" encoding="utf-8"?>
<!-- Generator: Adobe Illustrator 18.1.1, SVG Export Plug-In . SVG Version: 6.00 Build 0)  -->
<!DOCTYPE svg PUBLIC "-//W3C//DTD SVG 1.1//EN" "http://www.w3.org/Graphics/SVG/1.1/DTD/svg11.dtd">
<svg version="1.1"
	 id="svg21775" inkscape:export-filename="/home/chromakode/Documents/code/reddit/reddit-about/reddit_about/public/static/about/assets/reddit-alien.png" inkscape:version="0.48.3.1 r9886" inkscape:export-xdpi="184.19029" inkscape:export-ydpi="184.19029" sodipodi:docname="reddit-alien.svg" xmlns:dc="http://purl.org/dc/elements/1.1/" xmlns:rdf="http://www.w3.org/1999/02/22-rdf-syntax-ns#" xmlns:sodipodi="http://sodipodi.sourceforge.net/DTD/sodipodi-0.dtd" xmlns:inkscape="http://www.inkscape.org/namespaces/inkscape" xmlns:cc="http://creativecommons.org/ns#" xmlns:svg="http://www.w3.org/2000/svg"
	 xmlns="http://www.w3.org/2000/svg" xmlns:xlink="http://www.w3.org/1999/xlink" x="0px" y="0px" viewBox="-69 -220 500 500"
	 enable-background="new -69 -220 500 500" xml:space="preserve">
<sodipodi:namedview  id="namedview21835" fit-margin-bottom="0" fit-margin-right="0" inkscape:current-layer="svg21775" inkscape:window-maximized="0" inkscape:window-y="64" inkscape:window-x="1950" inkscape:window-height="900" inkscape:window-width="1261" inkscape:pageshadow="2" inkscape:pageopacity="0" pagecolor="#ffffff" borderopacity="1" fit-margin-top="0" objecttolerance="10" showgrid="false" guidetolerance="10" gridtolerance="10" inkscape:cy="235.80988" inkscape:zoom="1" fit-margin-left="0" inkscape:cx="178.3494" bordercolor="#666666">
	</sodipodi:namedview>
<g id="Layer_2" transform="matrix(12.584949,0,0,12.584949,-584.34433,-1.3717583)">
	
		<ellipse id="ellipse21778" sodipodi:cx="65.245003" sodipodi:rx="4.4109998" sodipodi:cy="28.417999" sodipodi:ry="5.3239999" fill="#FFFFFF" stroke="#000000" stroke-width="1.1" cx="65.3" cy="10.9" rx="4.4" ry="5.3">
	</ellipse>
	<g id="g21780">
		<g id="g21782">
			<path id="path21784" inkscape:connector-curvature="0" fill="#FFFFFF" d="M58.4,21.8c0.1-0.2,0.1-0.4,0.1-0.6
				c0-1.4-1.4-2.5-3-2.5s-3,1.1-3,2.5c0,0.2,0,0.4,0.1,0.6H58.4z"/>
		</g>
		<g id="g21786">
			
				<path id="path21788" inkscape:connector-curvature="0" fill="none" stroke="#000000" stroke-width="1.1" stroke-linecap="round" stroke-linejoin="round" d="
				M58.4,21.8c0.1-0.2,0.1-0.4,0.1-0.6c0-1.4-1.4-2.5-3-2.5s-3,1.1-3,2.5c0,0.2,0,0.4,0.1,0.6H58.4z"/>
		</g>
	</g>
	<g id="g21790">
		<g id="g21792">
			<path id="path21794" inkscape:connector-curvature="0" fill="#FFFFFF" d="M69,21.8c0.1-0.2,0.1-0.4,0.1-0.6c0-1.4-1.4-2.5-3-2.5
				c-1.7,0-3,1.1-3,2.5c0,0.2,0,0.4,0.1,0.6H69z"/>
		</g>
		<g id="g21796">
			
				<path id="path21798" inkscape:connector-curvature="0" fill="none" stroke="#000000" stroke-width="1.1" stroke-linecap="round" stroke-linejoin="round" d="
				M69,21.8c0.1-0.2,0.1-0.4,0.1-0.6c0-1.4-1.4-2.5-3-2.5c-1.7,0-3,1.1-3,2.5c0,0.2,0,0.4,0.1,0.6H69z"/>
		</g>
	</g>
	
		<circle id="circle21800" sodipodi:cx="49.683998" sodipodi:rx="2.7019999" sodipodi:cy="11.836" sodipodi:ry="2.7019999" fill="#FFFFFF" stroke="#000000" stroke-width="1.1" cx="49.8" cy="-5.6" r="2.7">
	</circle>
	
		<circle id="circle21802" sodipodi:cx="71.786003" sodipodi:rx="2.7019999" sodipodi:cy="11.836" sodipodi:ry="2.7019999" fill="#FFFFFF" stroke="#000000" stroke-width="1.1" cx="71.9" cy="-5.6" r="2.7">
	</circle>
	
		<path id="path21804" inkscape:connector-curvature="0" fill="none" stroke="#000000" stroke-width="1.1" stroke-linecap="round" stroke-linejoin="round" d="
		M68.3-15.1c0,0,0,0-5.4-1.3l-2,6.3"/>
	
		<ellipse id="ellipse21806" sodipodi:cx="56.146" sodipodi:rx="4.4109998" sodipodi:cy="28.417999" sodipodi:ry="5.3239999" fill="#FFFFFF" stroke="#000000" stroke-width="1.1" cx="56.2" cy="10.9" rx="4.4" ry="5.3">
	</ellipse>
	
		<circle id="circle21808" sodipodi:cx="70.431" sodipodi:rx="2.1300001" sodipodi:cy="2.789" sodipodi:ry="2.1300001" fill="#FFFFFF" stroke="#000000" stroke-width="1.1" cx="70.5" cy="-14.7" r="2.1">
	</circle>
	<g id="g21810">
		<g id="g21812">
			<path id="path21814" inkscape:connector-curvature="0" fill="#FFFFFF" d="M59.3,21.8h3c2.7-1.4,4.6-6.3,4.6-12.3
				c0-7-2.7-12.7-6.1-12.7c-3.4,0-6.1,5.7-6.1,12.7C54.6,15.5,56.6,20.4,59.3,21.8z"/>
		</g>
		<g id="g21816">
			<path id="path21818" inkscape:connector-curvature="0" fill="none" stroke="#000000" stroke-width="1.1" d="M59.3,21.8h3
				c2.7-1.4,4.6-6.3,4.6-12.3c0-7-2.7-12.7-6.1-12.7c-3.4,0-6.1,5.7-6.1,12.7C54.6,15.5,56.6,20.4,59.3,21.8z"/>
		</g>
	</g>
	
		<ellipse id="ellipse21820" sodipodi:cx="60.675999" sodipodi:rx="12.238" sodipodi:cy="15.552" sodipodi:ry="7.987" fill="#FFFFFF" stroke="#000000" stroke-width="1.1" cx="60.8" cy="-1.9" rx="12.2" ry="8">
	</ellipse>
	
		<line id="line21822" fill="none" stroke="#000000" stroke-width="1.1" stroke-linecap="round" stroke-linejoin="round" x1="57.5" y1="21.8" x2="64.1" y2="21.8"/>
	<g id="g21824">
		<path id="circle21826" inkscape:connector-curvature="0" fill="#FF4500" d="M56.5-5.5c-1.1,0-2,0.9-2,2s0.9,2,2,2s2-0.9,2-2
			S57.6-5.5,56.5-5.5z"/>
		<path id="circle21828" inkscape:connector-curvature="0" fill="#FF4500" d="M65.1-5.5c-1.1,0-2,0.9-2,2s0.9,2,2,2s2-0.9,2-2
			S66.2-5.5,65.1-5.5z"/>
		
			<path id="path21830" inkscape:connector-curvature="0" fill="none" stroke="#000000" stroke-width="1.1" stroke-linecap="round" d="
			M56.6,1.7C57.7,2.8,59.4,3,60.8,3"/>
		
			<path id="path21832" inkscape:connector-curvature="0" fill="none" stroke="#000000" stroke-width="1.1" stroke-linecap="round" d="
			M65,1.7C64,2.8,62.3,3,60.8,3"/>
	</g>
</g>
<g id="Layer_3" transform="translate(-56.49872,470.00082)">
</g>
</svg>
