<?xml version="1.0" encoding="utf-8"?>
<!-- Generator: Adobe Illustrator 18.1.1, SVG Export Plug-In . SVG Version: 6.00 Build 0)  -->
<!DOCTYPE svg PUBLIC "-//W3C//DTD SVG 1.1//EN" "http://www.w3.org/Graphics/SVG/1.1/DTD/svg11.dtd">
<svg version="1.1" id="Layer_3" xmlns="http://www.w3.org/2000/svg" xmlns:xlink="http://www.w3.org/1999/xlink" x="0px" y="0px"
	 viewBox="0 0 172.1 172.1" enable-background="new 0 0 172.1 172.1" xml:space="preserve">
<g>
	
		<rect x="49.3" y="88.8" transform="matrix(0.9718 0.2357 -0.2357 0.9718 24.8788 -16.9254)" fill="#BF9452" width="67.8" height="13.6"/>
	
		<rect x="58" y="66.2" transform="matrix(0.8905 0.455 -0.455 0.8905 43.2595 -33.8273)" fill="#D28B29" width="67.8" height="13.6"/>
	
		<rect x="73.3" y="43.9" transform="matrix(0.7531 0.6579 -0.6579 0.7531 59.8144 -58.0421)" fill="#F68A1F" width="67.8" height="13.6"/>
	
		<rect x="95" y="25.1" transform="matrix(0.5616 0.8274 -0.8274 0.5616 82.8903 -92.7091)" fill="#F47920" width="67.8" height="13.6"/>
	
		<rect x="46.1" y="111.3" transform="matrix(0.9985 5.452314e-02 -5.452314e-02 0.9985 6.5555 -4.1889)" fill="#A68A6E" width="67.8" height="13.6"/>
	<polygon fill="#818185" points="127.6,158.6 127.6,102.4 141.1,102.4 141.1,172.1 18.6,172.1 18.6,102.3 32.1,102.3 32.1,158.6 	
		"/>
	<rect x="45.6" y="131.5" fill="#818185" width="68.3" height="13.6"/>
</g>
</svg>
