<?xml version="1.0" encoding="utf-8"?>
<!-- Generator: Adobe Illustrator 18.1.1, SVG Export Plug-In . SVG Version: 6.00 Build 0)  -->
<!DOCTYPE svg PUBLIC "-//W3C//DTD SVG 1.1//EN" "http://www.w3.org/Graphics/SVG/1.1/DTD/svg11.dtd">
<svg version="1.1" id="Livello_1" xmlns="http://www.w3.org/2000/svg" xmlns:xlink="http://www.w3.org/1999/xlink" x="0px" y="0px"
	 viewBox="0 0 351.5 351.5" enable-background="new 0 0 351.5 351.5" xml:space="preserve">
<g>
	<path fill-rule="evenodd" clip-rule="evenodd" d="M0.5,128.2H30v56.6c0,5.1,1.2,9,3.1,11c2.4,2.4,6.3,3.2,11,3.2
		c5.1,0,8.6-0.8,10.6-3.2c2.4-2,3.5-5.9,3.5-11v-56.6h29.9v59c0,11.4-3.9,20.9-11.4,26.8c-7.5,5.9-18.5,9.4-32.6,9.4
		c-14.1,0-25.5-3.5-32.6-9.4c-7.1-5.9-11-15.3-11-26.8V128.2"/>
	<path fill-rule="evenodd" clip-rule="evenodd" d="M107,221.8v-93.6h28.3l25.9,43.7c0.8,1.2,2,2.8,2.8,5.1c0.8,2,2,5.1,3.1,8.3
		c0-1.2-0.4-3.5-0.4-5.1c0-2.4-0.4-4.7-0.4-7.5v-44.4h28.3v93.6h-28.3l-26.7-42.9c-0.4-1.6-2-3.1-2.8-5.5c-0.8-2-2-5.1-2.7-7.9
		c0,1.2,0.8,3.5,0.8,4.7c0,2,0.4,4.7,0.4,7.9v43.7H107"/>
	<rect x="213.5" y="128.2" fill-rule="evenodd" clip-rule="evenodd" width="29.5" height="93.6"/>
	<polyline fill-rule="evenodd" clip-rule="evenodd" points="252.7,221.8 285.4,173.4 256.3,128.2 289.7,128.2 302.6,151.8 
		316.4,128.2 349.8,128.2 319.1,173.4 351,221.8 316.4,221.8 302.2,196.6 288.1,221.8 252.7,221.8 	"/>
</g>
</svg>
